<?xml version="1.0" standalone="no"?>
<!DOCTYPE svg PUBLIC "-//W3C//DTD SVG 20010904//EN"
 "http://www.w3.org/TR/2001/REC-SVG-20010904/DTD/svg10.dtd">
<svg version="1.0" xmlns="http://www.w3.org/2000/svg"
 width="512.000000pt" height="512.000000pt" viewBox="0 0 512.000000 512.000000"
 preserveAspectRatio="xMidYMid meet">

<g transform="translate(0.000000,512.000000) scale(0.100000,-0.100000)"
fill="#000000" stroke="none">
<path d="M2135 5087 c-89 -36 -125 -59 -171 -109 -100 -107 -128 -260 -74
-397 11 -29 20 -55 20 -60 0 -5 -28 -14 -62 -21 -74 -14 -206 -61 -256 -90
-19 -12 -38 -17 -42 -13 -4 4 -15 31 -25 58 -37 101 -102 174 -195 221 -44 22
-73 29 -140 32 -76 4 -96 1 -175 -27 -123 -42 -152 -84 -104 -145 26 -33 52
-33 141 -1 170 61 281 10 343 -159 l28 -76 -70 -73 c-82 -86 -118 -137 -165
-232 -67 -133 -98 -261 -98 -399 l0 -81 -227 0 c-256 0 -271 -3 -417 -78 -91
-47 -156 -104 -156 -136 0 -12 14 -36 30 -53 37 -37 54 -34 138 22 90 60 171
90 270 99 188 16 505 -23 874 -109 186 -43 435 -108 456 -119 9 -5 -13 -44
-79 -137 -350 -493 -675 -846 -865 -942 -108 -55 -304 -72 -434 -39 -245 63
-441 255 -507 497 -26 96 -24 283 5 370 38 114 23 160 -54 160 -52 0 -80 -53
-108 -200 -99 -518 304 -997 834 -993 214 2 369 70 583 257 55 48 89 72 92 64
110 -327 202 -482 364 -613 212 -171 502 -247 766 -200 44 8 83 11 86 7 3 -4
21 -49 39 -100 38 -108 60 -131 113 -116 18 6 38 21 47 37 14 25 13 33 -20
129 -19 57 -34 105 -34 108 1 3 26 18 55 34 134 72 279 203 279 251 0 38 -15
60 -49 74 -33 14 -65 3 -90 -31 -28 -40 -165 -140 -244 -177 -197 -94 -478
-99 -673 -11 -94 42 -229 140 -213 154 14 12 1321 478 1326 472 4 -3 1 -29 -5
-57 -17 -71 -15 -96 8 -119 24 -24 82 -27 104 -5 33 33 62 217 53 340 -8 110
-30 202 -88 362 -27 75 -47 138 -45 140 2 2 62 0 133 -6 219 -18 368 9 515 92
183 104 314 263 383 468 134 392 -52 834 -428 1019 -127 62 -218 83 -372 83
-252 0 -390 -65 -631 -296 l-92 -88 -104 103 c-160 160 -334 248 -546 278 -48
7 -90 18 -94 24 -4 6 -20 46 -34 90 -30 88 -28 139 6 205 27 54 78 93 158 121
81 28 112 53 112 92 0 35 -40 78 -72 78 -13 -1 -59 -15 -103 -33z m100 -742
c95 -26 234 -98 310 -162 86 -73 163 -169 150 -187 -6 -8 -68 -85 -138 -172
-70 -88 -191 -247 -268 -356 l-140 -196 -67 19 c-185 54 -438 116 -627 154
l-210 42 -3 92 c-7 227 105 461 293 614 97 79 259 149 390 171 56 9 250 -3
310 -19z m1475 0 c238 -62 432 -255 497 -496 24 -87 23 -261 0 -349 -52 -191
-178 -348 -350 -436 -114 -58 -168 -67 -362 -61 -180 6 -287 20 -530 68 -198
39 -638 150 -653 164 -8 7 266 380 392 535 200 246 374 420 501 505 59 39 140
70 220 85 68 12 208 5 285 -15z m-1376 -1274 c131 -38 392 -103 526 -131 58
-12 108 -25 112 -29 3 -3 -264 -104 -595 -223 -331 -119 -603 -215 -605 -213
-2 2 23 37 55 77 83 101 260 340 335 453 35 52 65 94 67 95 1 0 49 -13 105
-29z m874 -408 c55 -158 69 -208 74 -262 l3 -34 -725 -262 -725 -263 -32 52
c-33 51 -53 99 -117 277 l-34 96 226 82 c125 44 461 166 747 270 286 104 523
190 526 190 4 1 29 -65 57 -146z"/>
<path d="M3377 4056 c-85 -23 -111 -73 -65 -131 20 -25 25 -27 67 -19 25 4 80
8 121 8 64 0 82 -4 127 -28 64 -35 93 -65 135 -141 32 -56 36 -60 74 -63 32
-2 44 2 63 22 31 33 23 74 -27 152 -109 169 -310 250 -495 200z"/>
<path d="M4076 1789 c-183 -27 -308 -157 -337 -349 -37 -255 154 -612 424
-788 81 -53 201 -104 290 -124 29 -6 54 -13 56 -14 2 -2 -17 -32 -43 -67 -67
-94 -154 -169 -259 -221 -123 -62 -216 -80 -367 -73 -199 9 -338 65 -456 182
-72 71 -101 125 -118 218 l-7 38 34 -6 c46 -9 151 12 206 40 115 59 184 156
185 260 1 52 -4 69 -29 111 -44 70 -92 96 -175 92 -43 -2 -82 -12 -114 -28
-65 -31 -153 -121 -191 -192 l-30 -57 -24 22 c-13 12 -39 53 -57 91 -42 87
-59 106 -98 106 -45 0 -76 -25 -76 -61 0 -70 111 -249 184 -298 34 -22 36 -27
36 -75 0 -126 59 -256 165 -361 226 -225 616 -298 935 -173 162 63 333 209
420 361 l45 77 95 0 c109 0 268 23 311 45 35 18 46 55 29 95 -17 41 -44 46
-159 27 -53 -9 -125 -19 -160 -23 -64 -6 -64 -6 -57 17 43 151 54 408 23 546
-87 384 -372 628 -681 582z m248 -203 c140 -69 224 -182 278 -371 32 -115 32
-331 -1 -462 -12 -51 -26 -95 -29 -97 -4 -2 -43 5 -87 16 -326 77 -598 399
-598 708 1 117 41 190 128 232 33 15 58 18 136 16 88 -3 103 -7 173 -42z
m-812 -663 c28 -26 23 -76 -12 -117 -37 -41 -98 -67 -166 -69 -44 -2 -49 0
-46 18 6 39 73 126 119 155 53 34 78 37 105 13z"/>
</g>
</svg>
